<svg width="526.6637451171875px" height="81.22124023437499px" xmlns="http://www.w3.org/2000/svg" viewBox="-13.331872558593773 34.389379882812506 526.6637451171875 81.22124023437499" style="background: rgba(0, 0, 0, 0);" preserveAspectRatio="xMidYMid"><defs><filter id="editing-hole" x="-100%" y="-100%" width="300%" height="300%"><feFlood flood-color="#000000" result="black"></feFlood><feMorphology operator="dilate" radius="2" in="SourceGraphic" result="erode"></feMorphology><feGaussianBlur in="erode" stdDeviation="4" result="blur"></feGaussianBlur><feOffset in="blur" dx="2" dy="2" result="offset"></feOffset><feComposite operator="atop" in="offset" in2="black" result="merge"></feComposite><feComposite operator="in" in="merge" in2="SourceGraphic" result="inner-shadow"></feComposite></filter></defs><g filter="url(#editing-hole)"><g transform="translate(64.45969726145267, 92.93218803405762)"><path d="M18.41-20.67L18.41-20.67L18.41-20.67Q15.25-20.67 12.95-21.72L12.95-21.72L11.70-15.40L19.23-15.40L19.23-15.40Q19.23-13.34 18.19-12.03L18.19-12.03L18.19-12.03Q17.16-10.72 15.29-10.72L15.29-10.72L15.29-10.72Q13.26-10.72 11.39-11.47L11.39-11.47L11.39-11.47Q11.00-11.62 10.96-11.66L10.96-11.66L8.74 0L0.23 0L5.19-25.74L22.58-25.74L22.58-25.74Q22.58-23.36 21.47-22.02L21.47-22.02L21.47-22.02Q20.36-20.67 18.41-20.67ZM33.50-10.96L33.50-10.96L33.50-10.96Q34.91-13.46 34.91-15.99L34.91-15.99L34.91-15.99Q34.91-17.67 33.70-17.67L33.70-17.67L33.70-17.67Q32.76-17.67 31.79-16.07L31.79-16.07L31.79-16.07Q30.77-14.47 30.46-12.40L30.46-12.40L28.43 0L20.36 0.78L24.34-19.89L30.77-20.67L30.07-16.73L30.07-16.73Q31.98-20.67 36.27-20.67L36.27-20.67L36.27-20.67Q38.53-20.67 39.76-19.50L39.76-19.50L39.76-19.50Q40.99-18.33 40.99-15.93L40.99-15.93L40.99-15.93Q40.99-13.53 39.41-12.01L39.41-12.01L39.41-12.01Q37.83-10.49 35.14-10.49L35.14-10.49L35.14-10.49Q33.97-10.49 33.50-10.96ZM50.12 0.78L50.12 0.78L50.12 0.78Q41.54 0.78 41.54-7.29L41.54-7.29L41.54-7.29Q41.54-13.03 44.69-16.73L44.69-16.73L44.69-16.73Q48.05-20.67 53.86-20.67L53.86-20.67L53.86-20.67Q58.07-20.67 60.22-18.72L60.22-18.72L60.22-18.72Q62.36-16.77 62.36-12.68L62.36-12.68L62.36-12.68Q62.36-6.43 59.01-2.81L59.01-2.81L59.01-2.81Q55.73 0.78 50.12 0.78ZM51.13-16.18L51.13-16.18L51.13-16.18Q50.66-15.13 50.29-13.55L50.29-13.55L50.29-13.55Q49.92-11.97 49.45-9.48L49.45-9.48L49.45-9.48Q48.98-6.98 48.98-3.90L48.98-3.90L48.98-3.90Q48.98-2.89 49.32-2.22L49.32-2.22L49.32-2.22Q49.65-1.56 50.54-1.56L50.54-1.56L50.54-1.56Q51.44-1.56 52.01-1.99L52.01-1.99L52.01-1.99Q52.57-2.42 53.00-3.43L53.00-3.43L53.00-3.43Q53.78-5.23 54.41-8.56L54.41-8.56L54.41-8.56Q55.03-11.89 55.09-13.34L55.09-13.34L55.09-13.34Q55.15-14.78 55.15-15.85L55.15-15.85L55.15-15.85Q55.15-16.93 54.83-17.63L54.83-17.63L54.83-17.63Q54.52-18.33 53.64-18.33L53.64-18.33L53.64-18.33Q52.77-18.33 52.18-17.78L52.18-17.78L52.18-17.78Q51.60-17.24 51.13-16.18ZM81.16 0.78L81.16 0.78L81.16 0.78Q76.44 0.78 76.44-2.89L76.44-2.89L76.44-2.89Q76.48-3.90 76.79-5.62L76.79-5.62L77.49-9.20L77.49-9.20Q78.55-14.27 78.55-15.40L78.55-15.40L78.55-15.40Q78.55-17.67 77.22-17.67L77.22-17.67L77.22-17.67Q75.00-17.67 73.83-11.86L73.83-11.86L71.53 0L63.69 0.78L67.74-19.93L74.14-20.67L73.52-16.85L73.52-16.85Q75.35-20.67 80.96-20.67L80.96-20.67L80.96-20.67Q83.69-20.67 84.84-19.52L84.84-19.52L84.84-19.52Q86.00-18.37 86.00-15.79L86.00-15.79L86.00-15.79Q86.00-13.38 84.75-7.72L84.75-7.72L84.75-7.72Q84.16-5.19 84.16-4.23L84.16-4.23L84.16-4.23Q84.16-3.28 84.69-2.73L84.69-2.73L84.69-2.73Q85.22-2.18 86.00-2.11L86.00-2.11L86.00-2.11Q85.61-0.78 84.26 0L84.26 0L84.26 0Q82.91 0.78 81.16 0.78ZM89.74-3.90L89.74-3.90L89.74-3.90Q89.74-4.95 90.28-7.61L90.28-7.61L92.35-18.14L90.05-18.14L90.21-19.30L90.21-19.30Q94.89-20.71 99.41-24.14L99.41-24.14L101.28-24.14L100.35-19.89L103.39-19.89L103.04-18.14L100.03-18.14L98.05-7.61L98.05-7.61Q97.54-5.19 97.54-4.37L97.54-4.37L97.54-4.37Q97.54-2.50 99.18-2.11L99.18-2.11L99.18-2.11Q98.79-0.78 97.38 0L97.38 0L97.38 0Q95.98 0.78 93.99 0.78L93.99 0.78L93.99 0.78Q92.00 0.78 90.87-0.47L90.87-0.47L90.87-0.47Q89.74-1.72 89.74-3.90ZM118.83-6.59L118.83-6.59L118.83-6.59Q119.81-5.93 119.81-4.47L119.81-4.47L119.81-4.47Q119.81-3.00 119.07-2.07L119.07-2.07L119.07-2.07Q118.33-1.13 117.12-0.51L117.12-0.51L117.12-0.51Q114.62 0.78 111.93 0.78L111.93 0.78L111.93 0.78Q109.24 0.78 107.66 0.20L107.66 0.20L107.66 0.20Q106.08-0.39 105.03-1.48L105.03-1.48L105.03-1.48Q102.96-3.55 102.96-7.33L102.96-7.33L102.96-7.33Q102.96-13.22 106.16-16.81L106.16-16.81L106.16-16.81Q109.59-20.67 115.56-20.67L115.56-20.67L115.56-20.67Q119.26-20.67 121.09-19.11L121.09-19.11L121.09-19.11Q122.46-17.94 122.46-16.03L122.46-16.03L122.46-16.03Q122.46-9.16 110.60-9.16L110.60-9.16L110.60-9.16Q110.45-8.15 110.45-7.29L110.45-7.29L110.45-7.29Q110.45-5.50 111.25-4.82L111.25-4.82L111.25-4.82Q112.05-4.13 113.53-4.13L113.53-4.13L113.53-4.13Q115.01-4.13 116.59-4.82L116.59-4.82L116.59-4.82Q118.17-5.50 118.83-6.59ZM110.88-10.84L110.88-10.84L110.88-10.84Q113.65-10.84 115.25-12.56L115.25-12.56L115.25-12.56Q116.84-14.20 116.84-16.81L116.84-16.81L116.84-16.81Q116.84-17.71 116.51-18.19L116.51-18.19L116.51-18.19Q116.18-18.68 115.52-18.68L115.52-18.68L115.52-18.68Q114.86-18.68 114.29-18.43L114.29-18.43L114.29-18.43Q113.72-18.17 113.14-17.32L113.14-17.32L113.14-17.32Q111.70-15.37 110.88-10.84ZM140.28 0.78L140.28 0.78L140.28 0.78Q135.56 0.78 135.56-2.89L135.56-2.89L135.56-2.89Q135.60-3.90 135.91-5.62L135.91-5.62L136.62-9.20L136.62-9.20Q137.67-14.27 137.67-15.40L137.67-15.40L137.67-15.40Q137.67-17.67 136.34-17.67L136.34-17.67L136.34-17.67Q134.12-17.67 132.95-11.86L132.95-11.86L130.65 0L122.81 0.78L126.87-19.93L133.26-20.67L132.64-16.85L132.64-16.85Q134.47-20.67 140.09-20.67L140.09-20.67L140.09-20.67Q142.82-20.67 143.97-19.52L143.97-19.52L143.97-19.52Q145.12-18.37 145.12-15.79L145.12-15.79L145.12-15.79Q145.12-13.38 143.87-7.72L143.87-7.72L143.87-7.72Q143.29-5.19 143.29-4.23L143.29-4.23L143.29-4.23Q143.29-3.28 143.81-2.73L143.81-2.73L143.81-2.73Q144.34-2.18 145.12-2.11L145.12-2.11L145.12-2.11Q144.73-0.78 143.38 0L143.38 0L143.38 0Q142.04 0.78 140.28 0.78ZM160.52-20.67L160.52-20.67L160.52-20.67Q161.93-20.67 163.02-20.36L163.02-20.36L163.02-20.36Q163.06-20.51 163.14-20.94L163.14-20.94L163.33-22.15L163.33-22.15Q163.49-22.93 163.72-24.22L163.72-24.22L164.35-27.30L172.11-28.08L167.78-5.46L167.78-5.46Q167.74-5.23 167.74-4.84L167.74-4.84L167.74-4.21L167.74-4.21Q167.74-3.35 168.17-2.71L168.17-2.71L168.17-2.71Q168.60-2.07 169.30-2.07L169.30-2.07L169.30-2.07Q168.52-0.23 166.14 0.55L166.14 0.55L166.14 0.55Q165.32 0.78 164.17 0.78L164.17 0.78L164.17 0.78Q163.02 0.78 161.97 0.18L161.97 0.18L161.97 0.18Q160.91-0.43 160.60-1.44L160.60-1.44L160.60-1.44Q159.98-0.43 158.73 0.18L158.73 0.18L158.73 0.18Q157.48 0.78 155.67 0.78L155.67 0.78L155.67 0.78Q153.85 0.78 152.35 0.31L152.35 0.31L152.35 0.31Q150.85-0.16 149.92-1.17L149.92-1.17L149.92-1.17Q148.20-3.16 148.20-7.68L148.20-7.68L148.20-7.68Q148.20-13.53 151.63-17.08L151.63-17.08L151.63-17.08Q155.06-20.67 160.52-20.67ZM160.25-18.33L160.25-18.33L160.25-18.33Q158.81-18.33 158.03-16.77L158.03-16.77L158.03-16.77Q157.25-15.21 156.45-11.35L156.45-11.35L156.45-11.35Q155.65-7.49 155.65-4.02L155.65-4.02L155.65-4.02Q155.65-1.64 157.05-1.64L157.05-1.64L157.05-1.64Q158.30-1.64 159.18-2.89L159.18-2.89L159.18-2.89Q160.06-4.13 160.41-6.20L160.41-6.20L162.51-17.63L162.51-17.63Q161.69-18.33 160.25-18.33ZM205.96-16.18L205.96-16.18L205.96-16.18Q205.96 0.43 187.94 0.43L187.94 0.43L187.94 0.43Q185.05 0.43 180.30-0.27L180.30-0.27L184.66-23.32L184.66-23.32Q184.98-24.88 185.17-25.78L185.17-25.78L185.17-25.78Q191.10-26.21 193.73-26.21L193.73-26.21L193.73-26.21Q196.36-26.21 198.78-25.66L198.78-25.66L198.78-25.66Q201.20-25.12 202.80-23.91L202.80-23.91L202.80-23.91Q205.96-21.53 205.96-16.18ZM197.92-17.63L197.92-17.63L197.92-17.63Q197.92-23.44 193.75-23.44L193.75-23.44L193.36-23.44L193.36-23.44Q193.17-23.44 192.97-23.40L192.97-23.40L188.95-2.46L188.95-2.46Q189.11-2.38 189.27-2.38L189.27-2.38L189.58-2.38L189.58-2.38Q191.02-2.38 192.52-3.28L192.52-3.28L192.52-3.28Q194.02-4.17 195.19-6.01L195.19-6.01L195.19-6.01Q197.92-10.26 197.92-17.63ZM223.74-6.59L223.74-6.59L223.74-6.59Q224.72-5.93 224.72-4.47L224.72-4.47L224.72-4.47Q224.72-3.00 223.98-2.07L223.98-2.07L223.98-2.07Q223.24-1.13 222.03-0.51L222.03-0.51L222.03-0.51Q219.53 0.78 216.84 0.78L216.84 0.78L216.84 0.78Q214.15 0.78 212.57 0.20L212.57 0.20L212.57 0.20Q210.99-0.39 209.94-1.48L209.94-1.48L209.94-1.48Q207.87-3.55 207.87-7.33L207.87-7.33L207.87-7.33Q207.87-13.22 211.07-16.81L211.07-16.81L211.07-16.81Q214.50-20.67 220.47-20.67L220.47-20.67L220.47-20.67Q224.17-20.67 226.00-19.11L226.00-19.11L226.00-19.11Q227.37-17.94 227.37-16.03L227.37-16.03L227.37-16.03Q227.37-9.16 215.51-9.16L215.51-9.16L215.51-9.16Q215.36-8.15 215.36-7.29L215.36-7.29L215.36-7.29Q215.36-5.50 216.16-4.82L216.16-4.82L216.16-4.82Q216.96-4.13 218.44-4.13L218.44-4.13L218.44-4.13Q219.92-4.13 221.50-4.82L221.50-4.82L221.50-4.82Q223.08-5.50 223.74-6.59ZM215.79-10.84L215.79-10.84L215.79-10.84Q218.56-10.84 220.16-12.56L220.16-12.56L220.16-12.56Q221.75-14.20 221.75-16.81L221.75-16.81L221.75-16.81Q221.75-17.71 221.42-18.19L221.42-18.19L221.42-18.19Q221.09-18.68 220.43-18.68L220.43-18.68L220.43-18.68Q219.76-18.68 219.20-18.43L219.20-18.43L219.20-18.43Q218.63-18.17 218.05-17.32L218.05-17.32L218.05-17.32Q216.61-15.37 215.79-10.84ZM242.85-19.23L242.85-19.23L242.85-19.23Q244.14-20.67 246.36-20.67L246.36-20.67L246.36-20.67Q247.73-20.67 248.78-19.93L248.78-19.93L248.78-19.93Q249.83-19.19 249.83-17.80L249.83-17.80L249.83-17.80Q249.83-16.42 249.40-14.94L249.40-14.94L249.40-14.94Q248.98-13.46 248.31-11.93L248.31-11.93L248.31-11.93Q246.99-8.97 245.15-6.51L245.15-6.51L245.15-6.51Q242.58-2.96 240.10-1.09L240.10-1.09L240.10-1.09Q237.63 0.78 234.94 0.78L234.94 0.78L234.94 0.78Q232.75 0.78 231.43 0.27L231.43 0.27L231.43 0.27Q231.19-7.92 230.90-10.84L230.90-10.84L230.90-10.84Q230.61-13.77 230.37-15.37L230.37-15.37L230.37-15.37Q229.98-18.49 228.81-19.23L228.81-19.23L228.81-19.23Q229.71-20.01 230.59-20.34L230.59-20.34L230.59-20.34Q231.46-20.67 233.28-20.67L233.28-20.67L233.28-20.67Q235.09-20.67 236.38-19.25L236.38-19.25L236.38-19.25Q237.67-17.82 237.92-15.31L237.92-15.31L237.92-15.31Q238.17-12.79 238.17-9.75L238.17-9.75L238.17-9.75Q238.17-6.71 237.94-3.04L237.94-3.04L237.94-3.04Q239.15-3.90 240.43-6.51L240.43-6.51L240.43-6.51Q242.19-10.14 242.81-14.51L242.81-14.51L242.81-14.51Q243.01-15.83 243.01-17.24L243.01-17.24L243.01-17.24Q243.01-18.64 242.85-19.23ZM266.68-6.59L266.68-6.59L266.68-6.59Q267.66-5.93 267.66-4.47L267.66-4.47L267.66-4.47Q267.66-3.00 266.92-2.07L266.92-2.07L266.92-2.07Q266.18-1.13 264.97-0.51L264.97-0.51L264.97-0.51Q262.47 0.78 259.78 0.78L259.78 0.78L259.78 0.78Q257.09 0.78 255.51 0.20L255.51 0.20L255.51 0.20Q253.93-0.39 252.88-1.48L252.88-1.48L252.88-1.48Q250.81-3.55 250.81-7.33L250.81-7.33L250.81-7.33Q250.81-13.22 254.01-16.81L254.01-16.81L254.01-16.81Q257.44-20.67 263.41-20.67L263.41-20.67L263.41-20.67Q267.11-20.67 268.94-19.11L268.94-19.11L268.94-19.11Q270.31-17.94 270.31-16.03L270.31-16.03L270.31-16.03Q270.31-9.16 258.45-9.16L258.45-9.16L258.45-9.16Q258.30-8.15 258.30-7.29L258.30-7.29L258.30-7.29Q258.30-5.50 259.10-4.82L259.10-4.82L259.10-4.82Q259.90-4.13 261.38-4.13L261.38-4.13L261.38-4.13Q262.86-4.13 264.44-4.82L264.44-4.82L264.44-4.82Q266.02-5.50 266.68-6.59ZM258.73-10.84L258.73-10.84L258.73-10.84Q261.50-10.84 263.09-12.56L263.09-12.56L263.09-12.56Q264.69-14.20 264.69-16.81L264.69-16.81L264.69-16.81Q264.69-17.71 264.36-18.19L264.36-18.19L264.36-18.19Q264.03-18.68 263.37-18.68L263.37-18.68L263.37-18.68Q262.70-18.68 262.14-18.43L262.14-18.43L262.14-18.43Q261.57-18.17 260.99-17.32L260.99-17.32L260.99-17.32Q259.55-15.37 258.73-10.84ZM280.96-2.15L280.96-2.15L280.96-2.15Q279.75 0.78 275.89 0.78L275.89 0.78L275.89 0.78Q273.94 0.78 272.69-0.58L272.69-0.58L272.69-0.58Q271.67-1.72 271.67-3.00L271.67-3.00L271.67-3.00Q271.67-5.93 273.04-12.32L273.04-12.32L275.89-27.30L283.80-28.08L280.02-8.35L280.02-8.35Q279.36-5.46 279.36-4.45L279.36-4.45L279.36-4.45Q279.36-2.22 280.96-2.15ZM292.77 0.78L292.77 0.78L292.77 0.78Q284.19 0.78 284.19-7.29L284.19-7.29L284.19-7.29Q284.19-13.03 287.35-16.73L287.35-16.73L287.35-16.73Q290.71-20.67 296.52-20.67L296.52-20.67L296.52-20.67Q300.73-20.67 302.87-18.72L302.87-18.72L302.87-18.72Q305.02-16.77 305.02-12.68L305.02-12.68L305.02-12.68Q305.02-6.43 301.67-2.81L301.67-2.81L301.67-2.81Q298.39 0.78 292.77 0.78ZM293.79-16.18L293.79-16.18L293.79-16.18Q293.32-15.13 292.95-13.55L292.95-13.55L292.95-13.55Q292.58-11.97 292.11-9.48L292.11-9.48L292.11-9.48Q291.64-6.98 291.64-3.90L291.64-3.90L291.64-3.90Q291.64-2.89 291.97-2.22L291.97-2.22L291.97-2.22Q292.31-1.56 293.20-1.56L293.20-1.56L293.20-1.56Q294.10-1.56 294.66-1.99L294.66-1.99L294.66-1.99Q295.23-2.42 295.66-3.43L295.66-3.43L295.66-3.43Q296.44-5.23 297.06-8.56L297.06-8.56L297.06-8.56Q297.69-11.89 297.75-13.34L297.75-13.34L297.75-13.34Q297.80-14.78 297.80-15.85L297.80-15.85L297.80-15.85Q297.80-16.93 297.49-17.63L297.49-17.63L297.49-17.63Q297.18-18.33 296.30-18.33L296.30-18.33L296.30-18.33Q295.43-18.33 294.84-17.78L294.84-17.78L294.84-17.78Q294.25-17.24 293.79-16.18ZM325.49-2.67L325.49-2.67L325.49-2.67Q323.86-1.01 321.61-0.12L321.61-0.12L321.61-0.12Q319.37 0.78 317.15 0.78L317.15 0.78L317.15 0.78Q314.92 0.78 314.14 0.39L314.14 0.39L312.94 7.02L305.02 7.80L310.40-19.89L316.76-20.55L316.25-17.86L316.25-17.86Q317.89-20.63 321.28-20.63L321.28-20.63L321.28-20.63Q325.10-20.63 327.13-18.17L327.13-18.17L327.13-18.17Q328.93-15.95 328.93-12.56L328.93-12.56L328.93-12.56Q328.93-9.16 328.03-6.75L328.03-6.75L328.03-6.75Q327.13-4.33 325.49-2.67ZM316.68-13.61L314.61-2.18L314.61-2.18Q315.43-1.48 316.45-1.48L316.45-1.48L316.45-1.48Q317.46-1.48 318.04-1.87L318.04-1.87L318.04-1.87Q318.63-2.26 319.06-3.04L319.06-3.04L319.06-3.04Q320.23-5.15 321.16-11.54L321.16-11.54L321.16-11.54Q321.44-13.42 321.44-15.25L321.44-15.25L321.44-15.25Q321.44-17.08 321.03-17.67L321.03-17.67L321.03-17.67Q320.62-18.25 319.84-18.25L319.84-18.25L319.84-18.25Q317.46-18.25 316.68-13.61L316.68-13.61ZM347.06-6.59L347.06-6.59L347.06-6.59Q348.04-5.93 348.04-4.47L348.04-4.47L348.04-4.47Q348.04-3.00 347.30-2.07L347.30-2.07L347.30-2.07Q346.55-1.13 345.35-0.51L345.35-0.51L345.35-0.51Q342.85 0.78 340.16 0.78L340.16 0.78L340.16 0.78Q337.47 0.78 335.89 0.20L335.89 0.20L335.89 0.20Q334.31-0.39 333.25-1.48L333.25-1.48L333.25-1.48Q331.19-3.55 331.19-7.33L331.19-7.33L331.19-7.33Q331.19-13.22 334.39-16.81L334.39-16.81L334.39-16.81Q337.82-20.67 343.79-20.67L343.79-20.67L343.79-20.67Q347.49-20.67 349.32-19.11L349.32-19.11L349.32-19.11Q350.69-17.94 350.69-16.03L350.69-16.03L350.69-16.03Q350.69-9.16 338.83-9.16L338.83-9.16L338.83-9.16Q338.68-8.15 338.68-7.29L338.68-7.29L338.68-7.29Q338.68-5.50 339.48-4.82L339.48-4.82L339.48-4.82Q340.28-4.13 341.76-4.13L341.76-4.13L341.76-4.13Q343.24-4.13 344.82-4.82L344.82-4.82L344.82-4.82Q346.40-5.50 347.06-6.59ZM339.11-10.84L339.11-10.84L339.11-10.84Q341.87-10.84 343.47-12.56L343.47-12.56L343.47-12.56Q345.07-14.20 345.07-16.81L345.07-16.81L345.07-16.81Q345.07-17.71 344.74-18.19L344.74-18.19L344.74-18.19Q344.41-18.68 343.75-18.68L343.75-18.68L343.75-18.68Q343.08-18.68 342.52-18.43L342.52-18.43L342.52-18.43Q341.95-18.17 341.37-17.32L341.37-17.32L341.37-17.32Q339.92-15.37 339.11-10.84ZM364.22-10.96L364.22-10.96L364.22-10.96Q365.63-13.46 365.63-15.99L365.63-15.99L365.63-15.99Q365.63-17.67 364.42-17.67L364.42-17.67L364.42-17.67Q363.48-17.67 362.50-16.07L362.50-16.07L362.50-16.07Q361.49-14.47 361.18-12.40L361.18-12.40L359.15 0L351.08 0.78L355.06-19.89L361.49-20.67L360.79-16.73L360.79-16.73Q362.70-20.67 366.99-20.67L366.99-20.67L366.99-20.67Q369.25-20.67 370.48-19.50L370.48-19.50L370.48-19.50Q371.71-18.33 371.71-15.93L371.71-15.93L371.71-15.93Q371.71-13.53 370.13-12.01L370.13-12.01L370.13-12.01Q368.55-10.49 365.86-10.49L365.86-10.49L365.86-10.49Q364.69-10.49 364.22-10.96Z" fill="#961e04"></path></g></g><style>text {
  font-size: 64px;
  font-family: Arial Black;
  dominant-baseline: central;
  text-anchor: middle;
}</style></svg>